# xmcd
#
# Track frame offsets: 
#        150
#        25950
#        42450
#        62831
#        84010
#        107816
#        125252
#        142727
#        160344
#        180160
#        196311
#
# Disc length: 2908 seconds
#
# Revision: 5
# Processed by: cddbd v1.5.2PL0 Copyright (c) Steve Scherf et al.
# Submitted via: ExactAudioCopy v0.95b3
#
DISCID=850b5a0b
DTITLE=周杰伦 - 叶惠美
DYEAR=2003
DGENRE=R&B
TTITLE0=以父之名
TTITLE1=懦夫
TTITLE2=晴天
TTITLE3=三年二班
TTITLE4=东风破
TTITLE5=你听得到
TTITLE6=同一种调调
TTITLE7=她的睫毛
TTITLE8=爱情悬崖
TTITLE9=梯田
TTITLE10=双刀
EXTD=
EXTT0=
EXTT1=
EXTT2=
EXTT3=
EXTT4=
EXTT5=
EXTT6=
EXTT7=
EXTT8=
EXTT9=
EXTT10=
PLAYORDER=
